<?xml version="1.0" encoding="utf-8"?>
<!-- Generator: Adobe Illustrator 15.0.0, SVG Export Plug-In . SVG Version: 6.00 Build 0)  -->
<!DOCTYPE svg PUBLIC "-//W3C//DTD SVG 1.1//EN" "http://www.w3.org/Graphics/SVG/1.1/DTD/svg11.dtd">
<svg id="start" version="1.1" xmlns="http://www.w3.org/2000/svg" xmlns:xlink="http://www.w3.org/1999/xlink" x="0px" y="0px"
	 width="300px" height="300px" viewBox="0 0 300 300" style="enable-background:new 0 0 300 300;" xml:space="preserve">
<style type="text/css">
	.st0{
		fill: green;
	}
	#start:hover{
		cursor: pointer;
	}
</style>
<g>
	<path class="st0" d="M92.437,9.643c0,0,8.877,14.694,10.815,37.959c5.118,61.434-52.902,87.032-46.93,145.908
		c5.684,56.031,75.939,60.581,75.939,60.581s-7.025,9.136-3.351,35.14c0.65,4.598,17.994-6.152,14.64-9.366
		c-8.231-7.887,3.216-23.212,3.216-23.212s75.58,2.901,90.446-40.956C282.194,82.975,92.437,9.643,92.437,9.643z M228.757,212.759
		c0,0-39.478-21.156-61.914,8.383c-2.004,4.258-4.36,8.453-7.09,12.577c-0.023,0.052-0.046,0.104-0.069,0.155
		c-0.172,0.42-0.277,0.543-0.325,0.439c-5.063,7.526-11.36,14.802-19.147,21.704c-4.66,4.131-4.436,23.847-4.436,23.847
		s-3.993-20.108-0.556-25.51c5.441-8.55,9.92-17.068,13.586-25.511c-26.622-37.088-65.914-17.75-65.914-17.75
		s30.501-24.402,69.007,10.133c3.701-9.788,6.332-19.452,8.047-28.916c-22.209-40.498-82.601-18.934-82.601-18.934
		s58.234-29.393,83.169,9.796c0.222,0.349,0.438,0.855,0.643,1.468c1.77-13.341,1.804-26.232,0.627-38.46
		c-20.108-32.701-58.926-28.819-58.926-28.819s39.916-7.206,56.95,14.4c-9.583-54.119-40.671-92.047-40.671-92.047
		s24.563,29.042,41.547,68.353c0.134-0.229,0.257-0.45,0.41-0.689c11.646-18.302,9.263-33.953,9.263-33.953s4.372,19.744-7.909,38.83
		c7.356,17.941,12.972,37.804,13.92,57.925c0.239-0.617,0.499-1.224,0.811-1.796c21.324-39.368,52.331-21.606,53.202-21.097
		c-1.21-0.697-32.018-17.76-54.042,35.428c0,0.002-0.002,0.002-0.002,0.003c-0.474,8.598-1.899,17.177-4.511,25.604
		C196.493,186.324,228.757,212.759,228.757,212.759z">
		 <animateTransform attributeName="transform" attributeType="XML" type="rotate" from="0 0 0" to="360 60 0" dur="1s" begin="start.click" fill="freeze"/>
	</path>
</g>
</svg>
